<svg width="512" height="512" viewBox="0 0 512 512" fill="none" xmlns="http://www.w3.org/2000/svg">
  <!-- Calendar Body -->
  <rect x="40" y="80" width="432" height="392" rx="40" fill="white" stroke="#004E82" stroke-width="24"/>
  
  <!-- Calendar Header -->
  <path d="M40 120C40 97.9086 57.9086 80 80 80H432C454.091 80 472 97.9086 472 120V180H40V120Z" fill="#66B2FF" stroke="#004E82" stroke-width="24"/>
  
  <!-- Calendar Rings -->
  <rect x="120" y="20" width="40" height="100" rx="20" fill="white" stroke="#004E82" stroke-width="20"/>
  <rect x="352" y="20" width="40" height="100" rx="20" fill="white" stroke="#004E82" stroke-width="20"/>
  
  <!-- Grid Squares -->
  <rect x="80" y="230" width="80" height="80" rx="12" fill="#FFC14D" stroke="#004E82" stroke-width="16"/>
  <rect x="216" y="230" width="80" height="80" rx="12" fill="white" stroke="#004E82" stroke-width="16"/>
  <rect x="352" y="230" width="80" height="80" rx="12" fill="white" stroke="#004E82" stroke-width="16"/>
  
  <rect x="80" y="360" width="80" height="80" rx="12" fill="white" stroke="#004E82" stroke-width="16"/>
  <rect x="216" y="360" width="80" height="80" rx="12" fill="white" stroke="#004E82" stroke-width="16"/>
  
  <!-- Clock Circle -->
  <circle cx="390" cy="390" r="100" fill="#B3E0FF" stroke="#004E82" stroke-width="20"/>
  
  <!-- Clock Hands -->
  <path d="M390 330V390H450" stroke="#004E82" stroke-width="20" stroke-linecap="round" stroke-linejoin="round"/>
</svg>
